<svg xmlns="http://www.w3.org/2000/svg" xmlns:xlink="http://www.w3.org/1999/xlink" width="500" zoomAndPan="magnify" viewBox="0 0 375 374.999991" height="500" preserveAspectRatio="xMidYMid meet" version="1.0"><path fill="#00008b" d="M 0.0390625 187.460938 C 0.0390625 83.945312 83.984375 0 187.5 0 C 291.015625 0 374.960938 83.945312 374.960938 187.460938 C 374.960938 290.976562 291.015625 374.925781 187.5 374.925781 C 83.984375 374.925781 0.0390625 290.976562 0.0390625 187.460938 Z M 0.0390625 187.460938 " fill-opacity="1" fill-rule="nonzero"/><path fill="#cea16f" d="M 216.210938 244.28125 C 215.304688 255.84375 204.273438 263.851562 191.730469 262.191406 C 179.113281 260.527344 169.667969 249.796875 170.648438 238.238281 L 174.578125 189.878906 C 175.484375 178.320312 186.519531 170.308594 199.0625 171.972656 C 211.679688 173.636719 221.125 184.363281 220.140625 195.847656 Z M 216.210938 244.28125 " fill-opacity="1" fill-rule="nonzero"/><path fill="#d6a972" d="M 232.304688 170.761719 C 234.042969 190.257812 218.402344 206.199219 197.398438 206.503906 C 176.394531 206.730469 157.957031 191.164062 156.292969 171.746094 L 149.117188 90.21875 C 147.378906 70.722656 163.019531 54.78125 184.023438 54.476562 C 205.03125 54.25 223.464844 69.816406 225.128906 89.234375 Z M 232.304688 170.761719 " fill-opacity="1" fill-rule="nonzero"/><path fill="#d6a972" d="M 305.675781 277.527344 L 276.433594 290.601562 L 298.875 338.277344 C 305.675781 333.292969 312.097656 327.777344 318.140625 321.882812 Z M 305.675781 277.527344 " fill-opacity="1" fill-rule="nonzero"/><path fill="#d6a972" d="M 266.460938 269.445312 L 268.652344 274.054688 L 266.308594 266.421875 Z M 266.460938 269.445312 " fill-opacity="1" fill-rule="nonzero"/><path fill="#d6a972" d="M 64.488281 328.832031 L 111.109375 298.761719 L 80.960938 278.132812 L 47.488281 312.058594 C 52.777344 318.027344 58.445312 323.621094 64.488281 328.832031 " fill-opacity="1" fill-rule="nonzero"/><path fill="#337180" d="M 291.089844 210.28125 L 218.855469 223.730469 L 160.296875 233.78125 L 109.824219 242.089844 L 78.015625 276.09375 L 81.039062 278.132812 L 111.109375 298.761719 L 115.871094 302.011719 L 128.789062 292.414062 L 128.035156 365.253906 C 146.773438 371.523438 166.722656 375 187.574219 375 C 218.027344 375 246.8125 367.671875 272.277344 354.75 L 266.609375 269.519531 L 274.167969 291.734375 L 276.507812 290.675781 L 305.75 277.605469 L 308.921875 276.167969 Z M 291.089844 210.28125 " fill-opacity="1" fill-rule="nonzero"/><path fill="#8b401e" d="M 146.472656 89.460938 C 146.472656 89.460938 147.605469 148.851562 152.742188 135.78125 C 180.625 64 247.570312 97.472656 250.59375 88.933594 L 233.894531 85.609375 C 233.894531 85.609375 251.421875 81.90625 252.859375 73.59375 C 252.859375 73.519531 158.484375 13.976562 146.472656 89.460938 " fill-opacity="1" fill-rule="nonzero"/></svg>